<svg width="800mm" height="196.7mm" viewBox="0 0 800 196.7" xml:space="preserve" xmlns="http://www.w3.org/2000/svg"><defs><linearGradient id="b" x1="844.19" x2="-113.02" y1="115.05" y2="116.78" gradientTransform="translate(-10.345 -3.204)" gradientUnits="userSpaceOnUse"><stop stop-color="#59f" offset="0"/><stop stop-color="#001d4e" stop-opacity=".761" offset="1"/></linearGradient><filter id="a" x="-.082" y="-.612" width="1.205" height="2.522" color-interpolation-filters="sRGB"><feFlood flood-color="#000" flood-opacity=".498" result="flood"/><feComposite in="flood" in2="SourceGraphic" operator="in" result="composite1"/><feGaussianBlur in="composite1" result="blur" stdDeviation="1"/><feOffset dx="2" dy="2" result="offset"/><feComposite in="SourceGraphic" in2="offset" result="fbSourceGraphic"/><feColorMatrix in="fbSourceGraphic" result="fbSourceGraphicAlpha" values="0 0 0 -1 0 0 0 0 -1 0 0 0 0 -1 0 0 0 0 1 0"/><feTurbulence baseFrequency=".1" numOctaves="5" result="result1" seed="50" type="fractalNoise"/><feGaussianBlur result="result7" stdDeviation="4"/><feDisplacementMap in="fbSourceGraphic" in2="result7" result="result5" scale="20" xChannelSelector="G"/><feComposite in="result5" in2="result1" operator="in" result="result2"/><feGaussianBlur result="result6" stdDeviation="1"/><feSpecularLighting in="result6" result="result4" specularConstant="3.5" specularExponent="35" surfaceScale="-3"><feDistantLight azimuth="225" elevation="45"/></feSpecularLighting><feComposite in="result4" in2="result2" k1="1.7" k3=".7" operator="arithmetic" result="result91"/><feBlend in2="result91" mode="multiply" result="fbSourceGraphic"/><feComposite in="fbSourceGraphic" in2="fbSourceGraphic" operator="arithmetic" result="result2"/><feComposite in="result2" in2="fbSourceGraphic" k2="2" k3="2" operator="arithmetic" result="result4"/><feBlend in="result4" in2="result4" mode="screen" result="fbSourceGraphic"/><feColorMatrix in="fbSourceGraphic" result="fbSourceGraphicAlpha" values="0 0 0 -1 0 0 0 0 -1 0 0 0 0 -1 0 0 0 0 1 0"/><feFlood flood-color="#000" flood-opacity=".498" result="flood"/><feComposite in="flood" in2="fbSourceGraphic" operator="in" result="composite1"/><feGaussianBlur in="composite1" result="blur" stdDeviation="3"/><feOffset dx="6" dy="6" result="offset"/><feComposite in="fbSourceGraphic" in2="offset" result="fbSourceGraphic"/><feColorMatrix result="fbSourceGraphicAlpha" values="0 0 0 -1 0 0 0 0 -1 0 0 0 0 -1 0 0 0 0 1 0"/><feFlood flood-color="#000" flood-opacity=".498" result="flood"/><feComposite in="flood" in2="fbSourceGraphic" operator="in" result="composite1"/><feGaussianBlur in="composite1" result="blur" stdDeviation="3"/><feOffset dx="6" dy="6" result="offset"/><feComposite in="fbSourceGraphic" in2="offset" result="composite2"/></filter></defs><g transform="matrix(.82375 0 0 .85565 541.94 194.04)" filter="url(#a)" stroke-width=".257" aria-label="莽兜世界教育版"><path d="M-327.87-64.898c2.42.756 5.446 1.866 7.664 2.874h-14.219c.807-1.563 1.463-3.328 1.967-5.244l-3.731-.555a20.523 20.523 0 0 1-2.32 5.8h-16.69v3.277h14.27c-3.63 3.933-8.975 6.303-15.783 7.765.756.756 1.815 2.269 2.219 3.076 7.866-2.118 14.068-5.345 18.052-10.841h6.454c3.63 5.143 10.034 8.773 17.547 10.286.504-.958 1.462-2.37 2.32-3.076-6.556-1.009-12.355-3.58-15.834-7.21h14.724v-3.278h-6.706l1.21-1.816c-1.563-.806-4.084-1.764-6.505-2.52h.404v-4.035h12v-3.378h-12v-3.681h-3.782v3.68h-13.514v-3.68h-3.731v3.68h-11.597v3.38h11.597v4.134h3.731v-4.135h13.514v3.782zm-15.53 13.211v5.698h-12.253v3.328h11.85c-.857 3.227-3.328 6.454-10.186 8.774.756.706 1.916 2.067 2.37 2.924 8.27-2.975 10.892-7.311 11.648-11.698h13.06v11.597h3.731V-42.66h12.404v-3.328h-12.404v-5.748h-3.731v5.748h-12.808v-5.698z" fill="#00112b"/><path d="M-287.53-60.007h9.076v6.253h-9.076zm0-9.026h9.076v6.152h-9.076zm8.572 20.12v12.151c0 4.135 1.21 5.295 5.9 5.295h7.664c4.135 0 5.244-1.866 5.698-9.329-1.059-.302-2.723-.907-3.58-1.563-.151 6.354-.454 7.261-2.471 7.261h-6.958c-2.068 0-2.42-.252-2.42-1.664v-12.152zm-12.102 0c-.908 7.714-3.227 12.403-14.623 14.723.756.757 1.765 2.27 2.118 3.278 12.404-2.925 15.379-8.673 16.438-18.001zm17.648-24.608v3.58h6.807v16.186h-6.807v3.53h10.488v-23.296zm-11.244-4.034c-.303 1.614-1.008 3.782-1.664 5.547h-4.488v21.228h15.732v-21.228h-7.563c.605-1.462 1.31-3.177 1.916-4.891zm-18.102 29.447c.756-.655 2.118-1.412 11.345-5.546-.202-.807-.454-2.37-.555-3.379l-6.656 2.723v-15.329c2.673-1.008 5.497-2.218 7.766-3.53l-2.925-2.773c-2.017 1.462-5.496 3.278-8.522 4.538v16.54c0 2.016-1.26 3.025-2.117 3.478.605.757 1.412 2.42 1.664 3.278z" fill="#025"/><path d="M-234.59-77.202v12.354h-9.177v-11.244h-3.933v11.244h-7.362v3.68h7.362v26.826h36.557v-3.681h-32.624v-23.144h9.177v15.984h17.346v-15.984h7.513v-3.68h-7.513v-11.8h-3.933v11.8h-9.63v-12.355zm13.413 16.035v12.505h-9.63v-12.505z" fill="#003380"/><path d="M-191.52-48.763v2.975c0 3.782-.857 8.673-9.732 12.001.807.706 2.068 2.067 2.572 3.025 9.832-3.933 11.043-10.085 11.043-14.925v-3.075zm-4.034-15.48h11.597v5.496h-11.597zm15.38 0h11.697v5.496h-11.698zm-15.38-8.37h11.597v5.395h-11.597zm15.38 0h11.697v5.395h-11.698zm4.688 23.85v17.598h3.883v-17.497c3.177 2.168 6.757 3.933 10.337 5.042.555-.958 1.714-2.42 2.572-3.227-6-1.563-12.051-4.79-15.934-8.723h10.034v-20.27h-34.692v20.27h10.085c-3.883 3.983-9.934 7.362-15.732 9.025.857.807 1.966 2.169 2.52 3.177 6.657-2.37 13.666-6.908 17.85-12.203h5.547c1.917 2.521 4.438 4.84 7.261 6.807z" fill="#04a"/><path d="M-124.97-77.454c-1.412 8.37-3.983 16.438-7.866 21.733l-1.815-1.311-.757.202h-5.193c1.11-1.21 2.168-2.42 3.176-3.732h7.11v-3.328h-4.74c2.32-3.479 4.286-7.26 5.95-11.396l-3.53-1.008a52.38 52.38 0 0 1-6.706 12.404h-3.126v-4.992h6.303v-3.278h-6.303v-5.294h-3.53v5.294h-6.656v3.278h6.656v4.992h-8.773v3.328h12.808c-1.16 1.31-2.37 2.571-3.681 3.731h-4.942v3.076h1.21a47.738 47.738 0 0 1-5.748 3.58c.807.706 2.168 2.118 2.673 2.874a49.411 49.411 0 0 0 8.723-6.454h5.395a40.23 40.23 0 0 1-5.748 4.589v3.68l-10.74 1.01.454 3.478 10.286-1.109v6.959c0 .605-.152.756-.858.756-.705.05-2.823.1-5.344 0 .504.958 1.008 2.32 1.16 3.277 3.277 0 5.445 0 6.857-.554 1.361-.555 1.765-1.513 1.765-3.379v-7.462l10.539-1.16v-3.278l-10.54 1.11v-2.471c2.673-1.815 5.497-4.236 7.665-6.656.857.605 2.168 1.765 2.723 2.32 1.26-1.715 2.42-3.732 3.429-5.9 1.11 5.194 2.622 9.933 4.538 14.119-2.824 4.286-6.757 7.664-12.001 10.135.706.807 1.866 2.47 2.27 3.378 4.94-2.571 8.773-5.798 11.748-9.782 2.47 4.084 5.597 7.362 9.48 9.682.605-1.06 1.815-2.471 2.723-3.228-4.135-2.168-7.362-5.647-9.883-10.085 3.075-5.395 4.991-12.102 6.252-20.22h3.227v-3.53h-14.875a92.916 92.916 0 0 0 2.068-8.773zm.706 12.908h8.774c-.908 6.253-2.27 11.597-4.387 16.085-2.017-4.74-3.43-10.236-4.387-16.085z" fill="#0055d4"/><path d="M-69.398-53.301v3.933h-23.144v-3.933zm-26.926-3.177v25.464h3.782v-8.773h23.144v4.437c0 .857-.303 1.16-1.362 1.16-.958.1-4.74.1-8.47-.05.503.907 1.109 2.268 1.31 3.176 4.942 0 8.068 0 9.883-.504 1.815-.505 2.42-1.513 2.42-3.732v-21.178zm3.782 9.934h23.144v3.983h-23.144zm7.916-30.204c.807 1.31 1.664 2.924 2.42 4.336h-21.026v3.379h13.362c-2.572 2.37-5.144 4.286-6.102 4.89-1.31.908-2.37 1.463-3.328 1.614.404 1.06 1.06 3.026 1.26 3.883 1.665-.656 4.237-.756 30.003-2.27 1.513 1.362 2.824 2.572 3.782 3.58l3.075-2.268c-2.622-2.471-7.513-6.454-11.345-9.43h13.615v-3.378H-77.72a98.985 98.985 0 0 0-3.126-5.395zm8.472 9.026 4.689 3.882-20.472.958c2.572-1.714 5.244-3.882 7.715-6.151h10.135z" fill="#06f"/><path d="M-50.641-76.445v20.069c0 7.614-.454 16.69-3.782 23.144.857.504 2.118 1.614 2.723 2.32 2.975-5.194 4.034-11.8 4.387-18.455h6.959v18.253h3.479v-21.682h-10.337l.05-3.631v-3.68H-33.8v-3.38h-4.437v-14.067h-3.48v14.068h-5.445v-12.96zm37.667 17.194c-1.11 5.748-3.025 10.639-5.496 14.673-2.471-4.236-4.236-9.227-5.395-14.673zM-31.58-74.025v17.396c0 7.513-.454 16.993-4.336 23.699.907.454 2.37 1.462 3.025 2.118 4.336-7.21 4.941-17.346 4.941-25.817v-2.622h1.06c1.31 6.757 3.327 12.757 6.252 17.699-2.723 3.378-5.9 5.9-9.379 7.513.807.706 1.765 2.168 2.27 3.076 3.428-1.765 6.554-4.236 9.227-7.413 2.37 3.127 5.193 5.597 8.572 7.413.554-.958 1.714-2.32 2.571-3.026-3.53-1.664-6.504-4.134-8.925-7.311 3.58-5.295 6.152-12.203 7.362-20.976l-2.269-.605-.605.151H-27.95V-71c6.908-.554 14.421-1.512 19.817-2.823l-2.37-3.227c-5.093 1.31-13.665 2.42-21.077 3.025z" fill="#2a7fff"/></g><g fill="url(#b)" filter="url(#a)" stroke="#00193f" stroke-opacity=".659" aria-label="Minetest Education" transform="translate(243.94 -31.69)"><path d="M-240.42 51.737q0-3.796 6.284-3.404 1.505.131 2.487.131v.066h1.375l20.095 45.493 20.16-45.493h.72v-.066h5.5q2.356 0 3.534 1.964.393.589.393 1.309v80.38h-12.044V80.342l-12.568 29.848h-11.324l-12.568-27.1v49.028h-12.044zM-167.63 49.184q7.2 0 7.2 7.331 0 7.397-7.2 7.397-3.535 0-5.433-1.898-1.898-1.964-1.898-5.499t1.898-5.433 5.433-1.898zm5.498 82.607h-11.259V68.167h11.26zM-145.77 72.094q3.796-3.796 7.659-3.796h11.127q5.695 0 9.82 3.861 4.123 3.862 4.123 9.623v50.27h-11.193v-48.11q0-2.488-1.44-4.19-1.375-1.767-4.058-1.767h-9.557q-3.862-.065-4.91 4.779-.261 1.309-.327 2.487v46.802h-11.193l-.065-63.755h10.015zM-64.211 117.46q-.196 9.884-7.659 13.484-2.487 1.178-5.694 1.178h-15.513q-5.826 0-9.623-4.189-3.861-4.19-3.861-10.08v-35.74q0-5.826 3.534-10.015 3.535-4.19 9.295-4.19h16.626q5.826 0 9.295 4.452 3.47 4.451 3.47 10.408v8.51q0 5.76-3.208 9.883-3.208 4.059-8.902 4.059h-19.113v11.848q0 5.236 5.302 5.236h9.95q2.225 0 3.534-1.244 1.374-1.309 1.309-3.6zm-26.052-39.405q-5.302 0-5.302 5.498v11.98h14.335q2.487 0 4.19-1.375 1.767-1.44 1.767-4.124v-6.742q0-2.75-1.768-3.993-1.702-1.244-4.189-1.244zM-43.003 118.57q0 4.844 5.237 4.844 5.302 0 5.89-5.499h2.423v11.848q-4.32 3.928-10.08 3.928-10.8 0-14.204-8.117-1.113-2.618-1.113-6.218v-39.21h-4.779v-9.883h4.779V57.76h11.848v12.502h9.033v9.884h-9.033zM19.64 117.46q-.196 9.884-7.659 13.484-2.487 1.178-5.694 1.178H-9.226q-5.826 0-9.622-4.189-3.862-4.19-3.862-10.08v-35.74q0-5.826 3.534-10.015 3.535-4.19 9.295-4.19H6.745q5.826 0 9.295 4.452 3.47 4.451 3.47 10.408v8.51q0 5.76-3.208 9.883-3.208 4.059-8.902 4.059h-19.113v11.848q0 5.236 5.302 5.236h9.95q2.225 0 3.534-1.244 1.374-1.309 1.309-3.6zM-6.412 78.055q-5.302 0-5.302 5.498v11.98H2.621q2.487 0 4.19-1.375 1.767-1.44 1.767-4.124v-6.742q0-2.75-1.768-3.993-1.702-1.244-4.189-1.244zM54.594 82.174q.13-3.666-4.516-3.666h-8.183q-5.629.066-5.105 7.659.13 1.964.13 3.535 0 4.909 4.975 4.909H53.35q5.892 0 9.492 4.19 3.665 4.188 3.665 10.014v8.771q0 6.022-3.927 10.342-3.927 4.255-9.884 4.255H38.295q-6.415 0-10.015-4.124-3.666-4.124-3.666-10.539h11.26q-.132 2.291 1.112 3.273 1.31.916 3.404.916h9.491q4.975 0 4.975-4.909v-6.546q0-5.105-4.975-5.105h-10.8q-5.956 0-9.884-3.731-3.927-3.731-3.927-9.622v-9.557q0-5.891 3.665-10.08t9.492-4.19H52.5q6.022 0 9.687 3.994 3.666 3.993 3.666 10.21zM95.373 118.57q0 4.844 5.237 4.844 5.302 0 5.89-5.499h2.423v11.848q-4.32 3.928-10.08 3.928-10.8 0-14.204-8.117-1.113-2.618-1.113-6.218v-39.21h-4.779v-9.883h4.779V57.76h11.848v12.502h9.033v9.884h-9.033zM196.9 132.12h-28.277q-6.088 0-10.997-3.862-4.975-3.862-4.975-9.819V62.08q0-5.956 4.975-9.884 4.975-3.927 10.997-3.927H196.9v10.342h-27.492q-2.553 0-3.731 1.636t-1.178 3.993v20.226h29.718v10.08h-29.718v21.732q0 2.357 1.178 3.993 1.178 1.637 3.731 1.637H196.9zM227.53 68.232q3.927 0 7.2 1.964V48.792h11.26v83h-10.278v-3.077q-4.254 3.077-9.491 3.077h-4.582q-8.378 0-13.288-5.433-4.975-5.433-4.975-13.877V87.608q0-13.746 9.23-17.935 3.207-1.44 7.724-1.44zm7.2 49.093V82.436q0-1.898-1.767-3.207-1.767-1.31-3.6-1.31h-6.939q-6.742 0-7.593 6.415-.261 1.964-.261 4.124v23.826q.065 5.106 1.112 6.742 2.03 3.142 6.743 3.142h5.629q3.6 0 5.956-2.88.72-.916.72-1.964zM295.02 132.05h-9.95v-3.142q-2.618 2.618-3.862 2.88-1.243.262-2.487.262h-13.09q-5.696 0-9.492-3.862-3.797-3.862-3.797-9.622V68.295h11.193v48.11q0 2.488 1.375 4.256 1.44 1.701 4.124 1.701h9.556q2.619 0 3.928-2.749 1.309-2.749 1.309-5.825V68.295h11.193zM317.86 78.05q-5.302 0-5.302 5.498v33.514q0 5.237 5.302 5.237h9.295q2.225 0 3.535-1.244 1.309-1.309 1.309-3.6h11.259q-.197 9.884-7.659 13.484-2.487 1.178-5.695 1.178h-14.859q-5.825 0-9.622-4.189-3.862-4.189-3.862-10.08v-35.74q0-5.76 3.6-9.884 3.6-4.058 9.23-4.058h15.513q5.825 0 9.491 4.124 3.731 4.124 3.862 10.08h-11.259q-.065-1.899-1.178-3.077-1.048-1.243-3.011-1.243zM383.06 83.549q0-5.498-5.302-5.498h-11.913q-1.964 0-3.077 1.243-1.047 1.179-1.112 3.077h-11.26q.132-5.957 3.863-10.08 3.73-4.124 9.491-4.124h17.477q5.63 0 9.23 4.058 3.6 4.059 3.6 9.884v50.01h-10.932v-2.553q-3.534 2.749-6.938 2.749h-10.735q-5.957 0-10.8-3.862-4.844-3.862-4.844-9.492v-12.437q0-5.76 4.844-9.622t10.8-3.862h12.7q2.617 0 4.908 1.44zm-.196 33.252v-8.117q0-2.487-1.44-4.189-1.375-1.767-4.059-1.767h-11.128q-2.749 0-3.993 1.767-1.243 1.702-1.243 4.19v8.116q0 2.487 1.243 4.255 1.244 1.702 3.993 1.702h11.128q2.684 0 4.059-1.702 1.44-1.768 1.44-4.255zM416.24 118.57q0 4.844 5.237 4.844 5.302 0 5.89-5.499h2.423v11.848q-4.32 3.928-10.08 3.928-10.8 0-14.204-8.117-1.113-2.618-1.113-6.218v-39.21h-4.779v-9.883h4.779V57.76h11.848v12.502h9.033v9.884h-9.033zM442.23 49.184q7.2 0 7.2 7.331 0 7.397-7.2 7.397-3.535 0-5.433-1.898-1.898-1.964-1.898-5.499t1.898-5.433q1.898-1.898 5.433-1.898zm5.498 82.607H436.47V68.167h11.26zM493.74 118.37q.066 5.63-4.647 9.491-4.713 3.928-10.604 3.928h-8.444q-5.957 0-10.8-3.862t-4.844-9.557V81.583q0-5.76 4.844-9.622t10.8-3.862h8.444q5.76 0 10.539 3.862 4.712 3.862 4.712 9.622zm-11.193-2.16V83.743q0-2.487-1.44-4.19-1.375-1.767-4.058-1.767h-6.219q-2.749 0-3.993 1.768-1.243 1.702-1.243 4.189v32.467q0 2.487 1.243 4.255 1.244 1.702 3.993 1.702h6.219q2.683 0 4.058-1.702 1.44-1.768 1.44-4.255zM510.24 72.094q3.796-3.796 7.659-3.796h11.128q5.694 0 9.818 3.861 4.124 3.862 4.124 9.623v50.27h-11.193v-48.11q0-2.488-1.44-4.19-1.375-1.767-4.058-1.767h-9.557q-3.862-.065-4.91 4.779-.261 1.309-.327 2.487v46.802h-11.193l-.065-63.755h10.015z"/></g><text x="130.954" y="114.564" fill="#06f" font-family="zpix" font-size="81.139" stroke-width=".265" xml:space="preserve" transform="translate(243.94 -31.69)"/></svg>