<?xml version="1.0" encoding="UTF-8"?>
<svg width="586.48mm" height="144.23mm" version="1.1" viewBox="0 0 586.48 144.23" xmlns="http://www.w3.org/2000/svg" xmlns:cc="http://creativecommons.org/ns#" xmlns:dc="http://purl.org/dc/elements/1.1/" xmlns:rdf="http://www.w3.org/1999/02/22-rdf-syntax-ns#">
 <defs>
  <filter id="a" x="-.066067" y="-.94561" width="1.1643" height="3.3509" color-interpolation-filters="sRGB">
   <feFlood flood-color="rgb(0,0,0)" flood-opacity=".49804" result="flood"/>
   <feComposite in="flood" in2="SourceGraphic" operator="in" result="composite1"/>
   <feGaussianBlur in="composite1" result="blur" stdDeviation="1"/>
   <feOffset dx="2" dy="2" result="offset"/>
   <feComposite in="SourceGraphic" in2="offset" result="fbSourceGraphic"/>
   <feColorMatrix in="fbSourceGraphic" result="fbSourceGraphicAlpha" values="0 0 0 -1 0 0 0 0 -1 0 0 0 0 -1 0 0 0 0 1 0"/>
   <feTurbulence baseFrequency="0.1" numOctaves="5" result="result1" seed="50" type="fractalNoise"/>
   <feGaussianBlur result="result7" stdDeviation="4"/>
   <feDisplacementMap in="fbSourceGraphic" in2="result7" result="result5" scale="20" xChannelSelector="G"/>
   <feComposite in="result5" in2="result1" operator="in" result="result2"/>
   <feGaussianBlur result="result6" stdDeviation="1"/>
   <feSpecularLighting in="result6" result="result4" specularConstant="3.5" specularExponent="35" surfaceScale="-3">
    <feDistantLight azimuth="225" elevation="45"/>
   </feSpecularLighting>
   <feComposite in="result4" in2="result2" k1="1.7" k3="0.7" operator="arithmetic" result="result91"/>
   <feBlend in2="result91" mode="multiply" result="fbSourceGraphic"/>
   <feComposite in="fbSourceGraphic" in2="fbSourceGraphic" operator="arithmetic" result="result2"/>
   <feComposite in="result2" in2="fbSourceGraphic" k2="2" k3="2" operator="arithmetic" result="result4"/>
   <feBlend in="result4" in2="result4" mode="screen" result="fbSourceGraphic"/>
   <feColorMatrix in="fbSourceGraphic" result="fbSourceGraphicAlpha" values="0 0 0 -1 0 0 0 0 -1 0 0 0 0 -1 0 0 0 0 1 0"/>
   <feFlood flood-color="rgb(0,0,0)" flood-opacity=".49804" in="fbSourceGraphic" result="flood"/>
   <feComposite in="flood" in2="fbSourceGraphic" operator="in" result="composite1"/>
   <feGaussianBlur in="composite1" result="blur" stdDeviation="3"/>
   <feOffset dx="6" dy="6" result="offset"/>
   <feComposite in="fbSourceGraphic" in2="offset" result="fbSourceGraphic"/>
   <feColorMatrix in="fbSourceGraphic" result="fbSourceGraphicAlpha" values="0 0 0 -1 0 0 0 0 -1 0 0 0 0 -1 0 0 0 0 1 0"/>
   <feFlood flood-color="rgb(0,0,0)" flood-opacity=".49804" in="fbSourceGraphic" result="flood"/>
   <feComposite in="flood" in2="fbSourceGraphic" operator="in" result="composite1"/>
   <feGaussianBlur in="composite1" result="blur" stdDeviation="3"/>
   <feOffset dx="6" dy="6" result="offset"/>
   <feComposite in="fbSourceGraphic" in2="offset" result="composite2"/>
  </filter>
 </defs>
 <g transform="translate(168.86 -51.546)">
  <g transform="matrix(.82375 0 0 .85565 144.25 156.17)" filter="url(#a)" stroke-width=".25719" aria-label=" 莽兜世界教育版">
   <path d="m-291.87-88.9c2.8658 0.92444 6.2862 2.1262 9.3368 3.4204h-19.043c1.2018-2.496 2.2186-5.2693 3.0506-8.2275l-11.001-1.3867c-0.83199 3.6053-2.1262 6.7484-3.7902 9.6141h-30.044v9.2444h21.632c-6.1937 4.6222-14.421 7.4879-24.498 9.3368 2.0338 2.0338 5.0844 6.5635 6.1013 8.8746 6.3786-1.5715 12.203-3.6053 17.287-6.1937v8.2275h-21.447v9.6141h19.506c-2.3111 4.2524-7.2106 8.2275-17.472 11.093 2.2186 2.0338 5.5466 6.1013 6.8408 8.6897 14.883-4.7146 20.522-12.11 22.371-19.783h19.783v19.598h10.908v-19.598h21.447v-9.6141h-21.447v-8.0426c4.8071 2.4035 10.261 4.16 16.27 5.2693 1.3867-2.7733 4.3448-7.0257 6.6559-9.1519-10.076-1.2018-19.043-4.0675-25.237-8.3199h22.556v-9.2444h-10.908l2.6809-3.7902c-2.5884-1.2942-6.7484-2.8657-10.816-4.2524v-4.7146h19.968v-9.6141h-19.968v-5.8239h-11.001v5.8239h-21.17v-5.8239h-11.001v5.8239h-19.598v9.6141h19.598v6.1013h11.001v-6.1013h21.17v6.1013h2.6809zm-1.3866 23.666v9.2444h-18.858v-9.0595h-9.0595c5.4542-2.9582 10.076-6.5635 13.774-11.186h9.8914c3.4204 4.4373 7.7653 8.135 12.942 11.001z" fill="#00112b"/>
   <path d="m-215.97-79.748h10.631v7.8577h-10.631zm0-15.438h10.631v7.7653h-10.631zm11.278 34.297v19.413c0 10.169 2.496 13.589 13.312 13.589h11.371c8.8746 0 11.833-3.6977 13.035-18.211-3.0506-0.73955-8.0426-2.5884-10.261-4.4373-0.36977 10.631-0.83199 12.203-3.8826 12.203h-8.5972c-3.2355 0-3.6977-0.46222-3.6977-3.328v-19.228zm-23.018 0c-1.2942 13.035-3.6977 20.522-25.33 24.59 2.2186 2.2186 5.0844 6.7484 6.1013 9.6141 24.96-5.7315 29.305-16.732 30.784-34.204zm34.389-46.037v10.169h9.5217v24.313h-9.5217v10.169h20.522v-44.65zm-53.155 49.272c1.7564-1.5715 4.8995-3.2355 21.077-10.723-0.73955-2.496-1.2942-7.1181-1.4791-10.261l-9.2444 3.8826v-23.018c3.6977-1.4791 7.3955-3.1431 10.908-4.9919v39.196h29.582v-39.936h-11.648l3.328-9.3368-11.278-1.3866c-0.46221 3.1431-1.4791 7.2106-2.5884 10.723h-5.9164l0.18489-0.0924-8.135-8.135c-3.8826 2.9582-9.8914 6.5635-15.346 8.967v28.565c0 3.8826-2.0338 6.1013-3.7902 7.2106 1.5715 2.0338 3.6977 6.7484 4.3448 9.3368z" fill="#025"/>
   <path d="m-123.35-112.84v21.539h-12.572v-19.598h-11.463v19.598h-12.572v10.631h12.572v48.81h69.333v-10.723h-57.87v-38.087h12.572v27.641h35.406v-27.641h12.295v-10.631h-12.295v-20.707h-11.555v20.707h-12.85v-21.539zm23.85 32.17v17.472h-12.85v-17.472z" fill="#003380"/>
   <path d="m-47.173-86.589h16.178v6.6559h-16.178zm27.363 0h16.362v6.6559h-16.362zm-27.363-14.976h16.178v6.6559h-16.178zm27.363 0h16.362v6.6559h-16.362zm3.5129 41.784v32.633h11.555v-29.397c4.8071 3.2355 10.169 5.7315 15.715 7.5804 1.664-2.9582 4.9919-7.303 7.3955-9.5217-9.7066-2.4035-18.951-6.9333-25.422-12.48h15.161v-39.566h-66.282v39.566h14.699c-6.5635 5.7315-15.715 10.539-25.052 13.219 2.4035 2.2186 5.7315 6.3786 7.303 9.0595 5.9164-2.1262 11.648-5.0844 16.825-8.5972v3.2355c0 6.0088-1.9413 13.867-17.379 18.766 2.496 2.2186 6.1013 6.3786 7.5804 9.0595 18.581-6.7484 21.17-18.489 21.17-27.363v-6.3786h-7.7653c4.2524-3.328 8.0426-7.0257 11.093-11.001h9.5217c3.0506 4.16 6.7484 7.8577 10.908 11.186z" fill="#04a"/>
   <path d="m77.811-113.67c-1.664 11.371-4.6222 22.464-8.967 31.246v-7.2106h-5.1768c3.6053-5.8239 6.8408-12.11 9.5217-18.858l-10.261-2.8658c-1.664 4.4373-3.6053 8.5972-5.8239 12.572v-6.471h-9.0595v-8.4124h-10.261v8.4124h-10.539v9.3368h10.539v6.2862h-14.144v9.5217h19.321c-1.664 1.5715-3.328 3.1431-5.0844 4.6222h-6.1013v4.6222c-2.9582 2.0338-6.1013 3.8826-9.3368 5.4542 2.2186 2.0338 6.0088 6.2862 7.4879 8.5048 4.9919-2.8657 9.7066-6.1937 14.144-9.9839h5.8239c-2.4035 2.4035-5.1768 4.7146-7.6728 6.471v5.3617l-18.858 1.3867 1.2018 9.799 17.657-1.4791v7.7653c0 0.92444-0.36977 1.2018-1.5715 1.2942-1.2018 0-5.1768 0-8.7821-0.09244 1.2942 2.6809 2.6809 6.5635 3.1431 9.3368 5.8239 0 10.169 0 13.497-1.5715 3.2355-1.3867 4.0675-3.9751 4.0675-8.7821v-8.8746l16.64-1.4791v-9.5217l-16.64 1.3867v-2.5884c4.6222-3.6053 9.1519-7.9501 12.85-12.018 2.3111 1.9413 4.8995 4.3448 6.1013 5.7315 1.4791-1.9413 2.9582-4.16 4.2524-6.5635 1.7564 6.9333 3.7902 13.219 6.3786 18.951-4.8071 6.8408-11.278 12.11-20.06 15.9 2.1262 2.3111 5.3617 7.4879 6.471 10.076 8.0426-4.0675 14.514-9.0595 19.598-15.161 4.16 6.0088 9.2443 11.001 15.623 14.791 1.664-2.9582 5.1768-7.3955 7.6728-9.6141-6.8408-3.5129-12.203-8.8746-16.455-15.438 4.9919-9.5217 8.135-20.892 10.076-34.666h5.4542v-10.261h-24.775c1.2942-4.8995 2.4035-9.9839 3.328-15.161zm-24.867 38.179 3.8826-4.6222h10.816c-1.2942 2.4035-2.7733 4.7146-4.3448 6.6559l-3.2355-2.5884-2.0338 0.55466zm-4.8995-20.43h7.3955c-1.2942 2.1262-2.7733 4.2524-4.2524 6.2862h-3.1431zm45.575 9.4292c-1.1093 8.135-2.6809 15.346-4.9919 21.632-2.496-6.6559-4.2524-13.959-5.6391-21.632z" fill="#0055d4"/>
   <path d="m178.3-65.789v4.4373h-37.255v-4.4373zm-48.348-8.967v47.978h11.093v-14.883h37.255v4.0675c0 1.5715-0.64711 2.1262-2.5884 2.1262-1.7564 0.09244-9.5217 0.09244-15.253-0.27733 1.4791 2.496 3.0506 6.2862 3.6053 8.967 8.967 0 15.346 0 19.598-1.2942 4.2524-1.3867 5.9164-3.8826 5.9164-9.4292v-37.255zm11.093 20.985h37.255v4.4373h-37.255zm10.723-58.055 3.0506 6.1013h-36.33v9.7066h19.413c-3.1431 2.496-5.9164 4.4373-7.303 5.2693-2.4035 1.5715-4.3448 2.6809-6.3786 3.0506 1.2018 3.0506 3.0506 8.5972 3.6053 11.001 4.16-1.4791 9.799-1.664 54.542-4.2524 2.2186 2.0338 4.0675 3.8826 5.4542 5.4542l9.4292-6.2862c-3.9751-3.7902-10.816-9.4292-16.64-14.236h20.153v-9.7066h-32.817c-1.4791-2.9582-3.4204-6.471-4.992-9.1519zm16.178 18.026 4.992 4.3448-28.473 1.2942c3.4204-2.4035 6.9333-5.0844 10.169-7.8577h16.917z" fill="#06f"/>
   <path d="m214.07-111.18v35.776c0 13.219-0.6471 30.969-6.1013 42.154 2.3111 1.4791 6.0088 4.8071 7.7653 6.8408 5.1768-8.6897 7.2106-20.892 8.0426-33.002h8.4124v32.355h10.076v-42.062h-18.119l0.0925-6.2862v-4.0675h22.649v-9.7066h-6.3786v-24.498h-9.9839v24.498h-6.2862v-22.002zm67.761 33.095c-1.4791 7.5804-3.6053 14.421-6.5635 20.338-3.1431-6.1937-5.5466-13.035-7.303-20.338zm-31.985-30.044v31.153c0 13.312-0.83199 32.633-7.5804 44.928 2.5884 1.2942 6.7484 4.3448 8.7821 6.1937 1.5715-2.6809 2.9582-5.6391 4.0675-8.6897 2.0338 2.1262 4.4373 5.7315 5.7315 8.135 5.5466-3.1431 10.446-7.1182 14.606-12.018 3.6053 4.8071 7.7652 8.8746 12.665 12.018 1.7564-2.8657 5.0844-6.9333 7.4879-8.8746-5.3617-2.9582-9.9839-7.0257-13.867-12.018 5.9164-10.169 9.799-23.111 11.555-39.473l-6.5635-1.664-1.8489 0.27733h-24.498v-10.908c11.74-0.83199 24.313-2.2186 34.389-4.4373l-6.1937-9.7066c-10.076 2.4035-25.145 4.2524-38.734 5.0844zm19.598 59.996c-3.8826 5.0844-8.5048 9.1519-13.867 11.925 3.6977-11.463 4.6222-25.33 4.8071-36.977 2.2186 9.1519 5.1768 17.657 9.0595 25.052z" fill="#2a7fff"/>
  </g>
  <g filter="url(#a)" stroke-width=".7432" aria-label="Minetest Education Edition  ">
   <g fill="#025">
    <path d="m-95.585 177.98q0.11891-3.9241 1.0108-7.7293 0.9513-3.8647 1.4864-5.9456 0.53511-2.081 0.65402-2.4972 0.11891-0.47565 0.11891-0.95131-0.47565-0.35673-0.4162-1.0108 0.11891-0.71348 0.9513-1.0108 0.11891-0.0595 0.17837-0.0595 0.05946 0 0.4162 0 0.35674-0.0595 0.47565 0.0595 0.11891 0.0594 0.11891 0.0594 0-0.0594 0.05946-0.0594 1.9026-0.29729 2.9728 2.3188 0.47565 1.0702 0.71348 2.1999 0.29728 1.1297 0.77293 2.0215 0.47565 0.89185 1.0702 1.9621 0.65402 1.0702 1.6053 1.9026 1.308-0.11892 2.6161-2.5566 0.35674-0.59456 0.71348-1.1297 0.35674-0.59456 0.71348-1.308 0.4162-0.71348 0.71348-1.1891 0.35674-0.53511 1.1297-1.8432 0.89185-1.3675 1.9621-2.6755 2.7945-3.389 4.5187-2.7944 1.427 0.4162 1.308 2.6755 0 0.59457-0.11891 1.1297-0.05946 1.7242-0.23783 2.7944-0.11891 1.0108-0.23783 1.9621-0.11891 0.89184-0.35674 2.1404-0.71348 3.3296-1.8431 6.8375-1.1297 3.4485-1.427 4.3998-0.29728 0.9513-0.4162 1.427-0.05946 0.47565-0.17837 0.9513 0.29728 0.53511 0.05946 1.2486l-0.35674 0.5351q-0.4162 0.59457-0.9513 0.59457-0.53511 0-1.0108-0.47565-0.71348-1.427 1.1297-6.897 1.0108-2.9728 1.427-4.6376 0.47565-1.7242 0.89185-3.2701 0.05946-0.11891 0.05946 0.11892 1.1891-4.6971 1.1297-8.7401-2.4972 2.4972-6.0051 8.3239-1.8431 3.0323-2.5566 3.7458-0.65402 0.71348-1.4864 0.83239-2.0215 0.35674-3.2106-0.5351-1.1891-0.95131-1.9621-2.4972-0.77293-1.5459-1.3675-3.3296-0.53511-1.7837-1.308-3.2106-0.11891 0.83239-0.35674 1.6053-0.23782 0.77293-0.71348 2.735-0.4162 1.9026-1.1891 5.1727-0.77293 3.2106-0.89185 6.5402-0.11891 1.1891-1.1297 1.308-0.4162 0-0.83239-0.29728-0.35674-0.29728-0.41619-0.9513zm2.9728-15.756 0.05946-0.23782q0 0.11891-0.05946 0.23782z"/>
    <path d="m-64.37 163.83q0.53511-1.0108 1.427-0.71347 0.9513 0.29728 0.83239 1.3675-0.89185 3.2106-1.5459 6.4213-0.59456 3.1512-1.4864 6.3618-0.47565 1.1297-1.4864 0.83239-1.0108-0.29728-0.71348-1.5459 0.29728-1.1891 0.59456-2.3782 0.35674-1.2486 0.65402-2.4377v-0.0595q0.47565-1.9621 0.77293-3.9241 0.35674-2.0215 0.9513-3.9241zm3.0917-8.5023q1.0108 0.35674 1.0108 1.2486 0 0.89185-1.0702 1.1297h-0.23782q-0.65402-0.0595-0.9513-0.4162-0.23782-0.35674-0.23782-0.83239 0.05946-1.0108 1.2486-1.1297z"/>
    <path d="m-58.603 176.31q-0.77293-1.8432-0.65402-4.4592 0.17837-2.6755 0.29728-3.9836 0.11891-1.308-0.05946-2.1404-0.53511-0.29728-0.59456-0.9513-0.11891-0.65402 0.29728-0.95131 0.47565-0.29728 0.53511-0.29728 0.9513-0.47565 1.6648 0.47565 0.89185 1.9621 0.29728 6.778-0.11891 1.1891-0.11891 2.1404 2.6755-4.1025 5.5889-7.2537 2.081-2.1999 4.1025-2.3188 1.0108-0.0594 2.0215-0.23782 1.0702-0.23783 1.9026 0.23782 3.5674 2.1404 2.5566 7.0753-0.41619 2.1404-1.5459 4.043-1.9026 3.2701-3.389 3.5674-0.53511 0.11892-1.0702 0.23783-0.53511 0.17837-0.9513-0.0595-0.35674-0.23782-0.47565-0.65402-0.29728-1.0108 0.77293-1.427 1.0702-0.41619 1.9621-1.427 0.9513-1.0702 1.5459-2.3783 0.65402-1.3675 0.89185-2.735 0.23783-1.427-0.05946-2.4972-0.71348-2.3783-3.9241-1.3675-1.8431 0.53511-3.1512 1.8432t-2.3783 2.9134q-1.0702 1.5459-2.081 3.2106-1.0108 1.6053-2.2593 2.8539-0.9513 0.53511-1.7242-0.23782z"/>
   </g>
   <g fill="#003380">
    <path d="m-25.129 162.16q0.65402 0.47565 0.53511 1.7242-0.05946 1.1891-1.0702 2.2593-0.9513 1.0702-2.3188 1.7242-1.9026 0.89185-5.7673 1.427-3.2106 3.6268-1.6053 4.9943 1.4864 1.3675 6.5997 0.65402 3.6863-0.47565 6.778-1.4864 1.0702-0.11891 1.3675 0.83239 0.29728 0.89185-0.71348 1.427-7.1348 2.0215-11.951 1.6053-3.0323-0.29728-4.043-1.7242-0.9513-1.427-0.53511-3.389 0.41619-1.9621 1.9026-4.043 1.4864-2.081 3.389-3.6863 1.9026-1.6053 3.9241-2.3188 2.0215-0.77294 3.5079 0zm-2.1404 2.081q-1.0702 0.23783-3.5079 2.1999 2.3783-0.71348 3.5079-2.1999z"/>
    <path d="m-16.865 165.67q-1.0702 0.29729-2.5566 0.71348-1.1891 0.23783-1.4864-0.77293t0.71348-1.427q1.1297-0.41619 3.8052-1.0702 0.29728-2.1404 1.0108-4.5187 0.77293-2.3782 1.1297-4.1025-0.11891-0.23783 0.05946-0.89185 0.17837-0.65402 0.29728-1.0108 0.17837-0.35673 0.53511-0.47565 0.35674-0.17837 0.77293-0.11891 0.89185 0.23783 0.89185 1.2486h0.05946l-0.11891 0.23782q-0.35674 2.1404-0.9513 4.2214-0.53511 2.081-1.0108 4.1619l-0.17837 0.71348 3.7458-0.71348q0.59456-0.0594 0.9513 0.23783 0.35674 0.29728 0.41619 0.71348 0.059456 0.41619-0.23783 0.83239-0.23783 0.41619-1.1891 0.59456-3.0917 0.59456-4.1619 0.83239-0.65402 3.6268-1.4864 7.1348-0.77293 3.4485-2.3783 6.8375-0.71348 0.95131-1.5459 0.47565-0.83239-0.47565-0.59456-1.4864 1.427-3.0323 2.1404-6.0646 0.77293-3.0917 1.3675-6.3024z"/>
    <path d="m6.2041 162.16q0.65402 0.47565 0.53511 1.7242-0.059456 1.1891-1.0702 2.2593-0.9513 1.0702-2.3188 1.7242-1.9026 0.89185-5.7673 1.427-3.2106 3.6268-1.6053 4.9943 1.4864 1.3675 6.5997 0.65402 3.6863-0.47565 6.778-1.4864 1.0702-0.11891 1.3675 0.83239 0.29728 0.89185-0.71348 1.427-7.1348 2.0215-11.951 1.6053-3.0323-0.29728-4.043-1.7242-0.9513-1.427-0.53511-3.389t1.9026-4.043q1.4864-2.081 3.389-3.6863 1.9026-1.6053 3.9241-2.3188 2.0215-0.77294 3.5079 0zm-2.1404 2.081q-1.0702 0.23783-3.5079 2.1999 2.3783-0.71348 3.5079-2.1999z"/>
    <path d="m21.782 165.02q0.83239 0.71348 0.59456 1.308-0.47565 1.1297-1.4864 0.89185-1.1891-0.47565-2.6161 0-2.3783 0.77293-3.9836 1.7242 1.1297 0.71347 2.3783 1.1297 1.308 0.41619 2.3783 1.0702 2.4972 1.308 3.0917 3.5674-0.11891 0.71347-0.4162 1.0702-2.5566 1.7837-6.5402 2.6161-3.8647 0.83239-7.0753 0.17837-1.0108-0.47565-0.77293-1.3675 0.23783-0.83239 1.2486-0.95131 3.8052 0.65402 8.6806-0.83239 1.427-0.41619 2.2593-1.0108-1.0108-0.71347-2.2593-1.1891-1.2486-0.47566-2.4377-1.0108-1.1297-0.59457-2.0215-1.3675-0.83239-0.77293-1.0702-2.1404-0.05946-0.83239 0.53511-1.308 5.9456-3.6863 9.513-2.3783z"/>
    <path d="m28.797 165.67q-1.0702 0.29729-2.5566 0.71348-1.1891 0.23783-1.4864-0.77293t0.71348-1.427q1.1297-0.41619 3.8052-1.0702 0.29728-2.1404 1.0108-4.5187 0.77293-2.3782 1.1297-4.1025-0.11891-0.23783 0.05946-0.89185 0.17837-0.65402 0.29728-1.0108 0.17837-0.35673 0.53511-0.47565 0.35674-0.17837 0.77293-0.11891 0.89185 0.23783 0.89185 1.2486h0.05946l-0.11891 0.23782q-0.35674 2.1404-0.9513 4.2214-0.53511 2.081-1.0108 4.1619l-0.17837 0.71348 3.7458-0.71348q0.59456-0.0594 0.9513 0.23783 0.35674 0.29728 0.4162 0.71348 0.05946 0.41619-0.23783 0.83239-0.23782 0.41619-1.1891 0.59456-3.0917 0.59456-4.1619 0.83239-0.65402 3.6268-1.4864 7.1348-0.77293 3.4485-2.3783 6.8375-0.71348 0.95131-1.5459 0.47565-0.83239-0.47565-0.59456-1.4864 1.427-3.0323 2.1404-6.0646 0.77293-3.0917 1.3675-6.3024z"/>
    <path d="m77.73 176.61q-3.6863-0.0595-7.4915-0.11891-3.7458 0-7.3726 1.0702-1.308 0.35674-2.9728 1.427-1.6648 1.0702-2.6161 1.5459-0.9513 0.53511-2.0215 0.71348-1.4864-0.29728-1.1297-1.5459 0.29728-1.2486 1.2486-2.3188 1.0108-1.0702 1.6053-2.3188 0.59456-1.2486 1.5459-3.3296 1.0108-2.0215 1.7837-4.2809 2.081-5.3511 2.4377-8.6212-0.59456-0.23783-0.71348-0.89185t0.35674-0.9513q0.47565-0.35674 0.65402-0.4162 0.23782-0.11891 0.47565-0.23782 1.3675-0.53511 1.7837 0.89184v0.65402q1.2486-0.23782 2.4972-0.47565 1.308-0.29728 2.6161-0.41619 3.0323-0.35674 4.9349 0.47565 1.0108 0.71348 0.4162 1.6648-0.53511 0.89184-1.6053 0.47565-1.0702-0.47565-2.1999-0.47565-1.1297-0.0595-2.3188 0.17837-1.1297 0.17837-2.3188 0.47565t-2.3188 0.47565q-0.35674 1.9026-1.5459 5.4105 1.6053-0.17837 3.5079-0.29728 1.9621-0.17837 2.9134-0.65402 1.0108-0.53511 1.427-0.41619 0.29728 0.0594 0.53511 0.41619 0.47565 0.77293-0.11891 1.6648-1.9026 1.0108-4.2214 1.2486-2.3188 0.17837-4.3998 0.4162-0.17837 0-0.53511-0.11891-0.47565 1.1891-1.0108 2.3188-0.47565 1.1297-0.9513 2.3188-0.47565 1.1297-0.9513 2.3782-0.47565 1.2486-0.89185 1.7837-0.35674 0.53511-0.35674 0.59457 2.4972-1.6648 3.8052-2.0215 3.8647-1.0702 7.7293-1.0702 3.9241-0.0595 7.8482 0 1.0108 0.35673 1.0108 1.2486t-1.0702 1.1297z"/>
   </g>
   <g fill="#04a">
    <path d="m87.184 163.83q0.71348 0 1.9621 1.2486 0.77293-1.308 2.081-3.9241 1.308-2.6755 1.7837-3.9836t1.1297-2.4972q0.65402-0.47565 1.2486-0.35674t0.89185 0.9513q0 1.9621-0.71348 3.4485-0.71348 1.4864-1.1891 2.4377-0.47565 0.9513-0.89185 2.0215-0.77293 1.9026-1.308 4.7565-0.47565 2.7944-0.47565 3.9836 0 1.1297 0.4162 1.9621t1.308 0.77293q0.9513-0.11891 1.5459-0.29728t1.1891-0.23783q0.59456-0.11891 0.9513 0.17837 0.35674 0.23783 0.47565 0.59457 0.29728 0.89184-0.71348 1.427-0.77293 0.17837-1.5459 0.41619-0.71348 0.23783-1.6648 0.29729-0.89185 0.0594-1.7242-0.29729-0.83239-0.29728-1.427-1.0702-1.1891-1.427-1.1297-3.4485 0-1.4864 0.23782-3.1512-3.9241 6.6591-7.3726 8.6806-0.9513 0.53511-1.7242-0.23782-1.427-2.2594 0.4162-6.4213 1.1297-2.4972 3.7458-5.8862 0.35674-0.47565 0.89185-0.65402 0.53511-0.23782 0.9513-0.47565 0.4162-0.23783 0.65402-0.23783zm-0.35674 5.0538q0.71348-1.1891 0.83239-1.4864 0.17837-0.29728 0.29728-0.4162-0.11891-0.0594-0.17837-0.0594-0.05946 0-0.17837-0.0595-0.11891-0.17837-0.47565-0.41619-2.6161 1.6648-4.1619 6.2429-0.4162 1.2486-0.59456 2.3188 1.427-0.9513 4.4592-6.124z"/>
    <path d="m102.23 165.25q0.5351-1.0702 1.6053-0.59457 0.35674 0.17837 0.53511 0.65402 0.23782 0.4162-0.11892 1.1297-0.35673 0.65402-1.0702 1.9621-0.65402 1.308-1.2486 2.735-1.3675 3.5079-0.65403 5.1132 2.735 0.83239 5.2916-3.8647 1.9621-3.5674 2.735-4.5782 0.83239-1.0702 1.7242-1.427 0.71348-0.11891 1.308 0.59456 0.29728 0.71348-0.29729 2.6755-0.5351 1.9026-0.83239 3.0323-0.29728 1.1297-0.41619 1.9621-0.0595 0.83239 0.23782 1.2486 0.35674 0.35674 1.2486 0.0595 0.89185-0.35674 1.7242-0.77293 0.89185-0.35674 1.7242-0.71348 2.3783-1.0702 3.1512-1.4864 0.83239-0.47565 1.1891-0.35674 0.35674 0.0595 0.65402 0.4162 0.47565 0.77293-0.17837 1.6648-3.7458 2.1404-5.5889 2.9134-4.3998 1.8432-5.6484 0-1.0108-1.427-0.71348-3.9836-3.3296 4.9943-6.3024 5.2322-2.6161 0.23783-3.4485-2.2593-0.4162-1.1891-0.11891-2.3782 0.29728-1.2486 0.4162-1.6648 0.11891-0.47566 0.17837-0.83239 0.11891-0.35674 0.29728-0.83239 1.3675-3.4485 2.6161-5.6484z"/>
    <path d="m129.99 166.62q-0.77294 0.41619-1.427 0-3.2701 1.3675-5.1727 4.2809-0.71348 1.0702-0.83239 2.1999 1.1891 1.6053 5.47 1.1297 1.7242-0.23783 3.3296-0.59457 1.6053-0.41619 2.3188-0.53511 0.71348-0.11891 1.0702 0.17837 0.35674 0.23783 0.47565 0.59457 0.29728 0.89184-0.71348 1.427-4.697 1.1891-6.4808 1.427-3.9836 0.53511-6.4807-1.0702-2.1999-1.5459-1.0108-4.5187 1.0702-2.6161 3.9241-4.8754 2.8539-2.2594 5.1132-2.2594 0.59457 0.17837 0.89185 0.65402 0.23782 0.65402 0.0594 1.0702-0.11891 0.35674-0.5351 0.89185z"/>
   </g>
   <g fill="#06f">
    <path d="m134.45 171.08q0.47565-0.95131 1.1297-1.7837 0.71348-0.83239 2.4377-2.4972 1.7837-1.6648 3.2106-2.5566 1.4864-0.89185 2.1999-0.9513 0.71348-0.0595 1.1891 0.23782 1.0108 0.65402 0.59456 1.9621 0.4162-0.29728 0.77293-0.5351 0.35674-0.29729 0.89185-0.35674 0.59456-0.11891 1.0108 0.29728 0.41619 0.35674 0.29728 1.0702-0.59456 2.1999-1.2486 3.9836-0.59457 1.7837-0.35674 2.9134 0.23782 1.1297 1.7242 1.427 1.4864 0.23783 5.1727-0.59456 0.59457-0.0595 0.9513 0.23782 0.35674 0.29729 0.4162 0.71348 0.0594 0.41619-0.23783 0.83239-0.23782 0.41619-1.0702 0.65402-2.1404 0.53511-4.2809 0.53511-2.081 0.0594-3.2106-0.59457-1.0702-0.59456-1.5459-1.6053-0.71347-1.6053 0.17837-4.9349-0.89184 0.89185-2.1404 2.2593-1.2486 1.3675-1.7837 1.9026-0.53511 0.47565-1.0108 0.89184-0.41619 0.35674-1.4864 0.65402-1.0108 0.29729-2.0215 0.23783-0.9513-0.0595-1.6648-0.65402-0.71348-0.59456-0.65403-1.6648 0.0595-1.1297 0.53511-2.081zm8.1455-3.6268q-0.65402-0.0595-1.0108-0.53511-1.4864 1.1891-3.0917 2.735-1.6053 1.4864-2.1404 3.3296 2.3782 0.65402 5.47-3.6268 0.83239-1.1891 1.7242-2.1404-0.35674 0.11891-0.9513 0.23783z"/>
    <path d="m155.44 165.67q-1.0702 0.29729-2.5566 0.71348-1.1891 0.23783-1.4864-0.77293-0.29729-1.0108 0.71347-1.427 1.1297-0.41619 3.8052-1.0702 0.29728-2.1404 1.0108-4.5187 0.77293-2.3782 1.1297-4.1025-0.11891-0.23783 0.0595-0.89185 0.17837-0.65402 0.29728-1.0108 0.17837-0.35673 0.53511-0.47565 0.35674-0.17837 0.77293-0.11891 0.89185 0.23783 0.89185 1.2486h0.0594l-0.11891 0.23782q-0.35674 2.1404-0.9513 4.2214-0.53511 2.081-1.0108 4.1619l-0.17837 0.71348 3.7458-0.71348q0.59457-0.0594 0.95131 0.23783 0.35674 0.29728 0.41619 0.71348 0.0595 0.41619-0.23782 0.83239-0.23783 0.41619-1.1891 0.59456-3.0917 0.59456-4.162 0.83239-0.65402 3.6268-1.4864 7.1348-0.77293 3.4485-2.3783 6.8375-0.71347 0.95131-1.5459 0.47565-0.83239-0.47565-0.59457-1.4864 1.427-3.0323 2.1404-6.0646 0.77294-3.0917 1.3675-6.3024z"/>
    <path d="m168.64 163.83q0.5351-1.0108 1.427-0.71347 0.9513 0.29728 0.83239 1.3675-0.89185 3.2106-1.5459 6.4213-0.59456 3.1512-1.4864 6.3618-0.47565 1.1297-1.4864 0.83239-1.0108-0.29728-0.71347-1.5459 0.29728-1.1891 0.59456-2.3782 0.35674-1.2486 0.65402-2.4377v-0.0595q0.47565-1.9621 0.77293-3.9241 0.35674-2.0215 0.95131-3.9241zm3.0917-8.5023q1.0108 0.35674 1.0108 1.2486 0 0.89185-1.0702 1.1297h-0.23782q-0.65402-0.0595-0.9513-0.4162-0.23783-0.35674-0.23783-0.83239 0.0595-1.0108 1.2486-1.1297z"/>
   </g>
   <g fill="#2a7fff">
    <path d="m174.05 171.02q0.35674-0.9513 0.83239-2.1404 0.35674-1.2486 0.9513-2.2593 1.3675-2.6755 2.8539-3.8052l0.17837-0.35674q3.1512-2.735 6.2429-2.0215 1.427 0.35674 2.4972 1.3675 1.0702 0.9513 1.5459 2.3188 1.1891 3.2106-0.83238 6.8375-1.308 2.4377-4.3998 3.9241-2.2593 1.1297-5.7673 1.5459-1.9621 0.29728-3.389-1.6053-1.427-1.9026-0.71348-3.8052zm9.9887 1.0108q1.3675-0.9513 2.2594-2.1999 0.89184-1.308 0.89184-3.3296 0-2.0215-1.0702-3.0323-1.0702-1.0108-2.6161-0.77294-0.23783 0.71348-1.0108 0.89185-2.2594 0.29728-4.1025 3.1512-1.6053 2.4972-2.0215 4.816-0.11891 0.47565 0.0594 0.9513 0.23783 0.41619 0.35674 0.89185 0.35674 0.11891 0.71348 0.35673 0.35674 0.17837 1.1891 0.23783 0.89184 0.0595 2.4377-0.47565 1.6053-0.53511 2.9134-1.4864z"/>
    <path d="m192.6 176.31q-0.77293-1.8432-0.65402-4.4592 0.17837-2.6755 0.29728-3.9836 0.11892-1.308-0.0594-2.1404-0.53511-0.29728-0.59457-0.9513-0.11891-0.65402 0.29728-0.95131 0.47566-0.29728 0.53511-0.29728 0.9513-0.47565 1.6648 0.47565 0.89185 1.9621 0.29728 6.778-0.11891 1.1891-0.11891 2.1404 2.6755-4.1025 5.5889-7.2537 2.081-2.1999 4.1025-2.3188 1.0108-0.0594 2.0215-0.23782 1.0702-0.23783 1.9026 0.23782 3.5674 2.1404 2.5566 7.0753-0.41619 2.1404-1.5459 4.043-1.9026 3.2701-3.389 3.5674-0.53511 0.11892-1.0702 0.23783-0.53511 0.17837-0.95131-0.0595-0.35674-0.23782-0.47565-0.65402-0.29728-1.0108 0.77293-1.427 1.0702-0.41619 1.9621-1.427 0.9513-1.0702 1.5459-2.3783 0.65402-1.3675 0.89185-2.735 0.23782-1.427-0.0595-2.4972-0.71347-2.3783-3.9241-1.3675-1.8432 0.53511-3.1512 1.8432t-2.3783 2.9134q-1.0702 1.5459-2.081 3.2106-1.0108 1.6053-2.2593 2.8539-0.95131 0.53511-1.7242-0.23782z"/>
    <path d="m251.94 176.61q-3.6863-0.0595-7.4915-0.11891-3.7458 0-7.3726 1.0702-1.308 0.35674-2.9728 1.427-1.6648 1.0702-2.6161 1.5459-0.9513 0.53511-2.0215 0.71348-1.4864-0.29728-1.1297-1.5459 0.29728-1.2486 1.2486-2.3188 1.0108-1.0702 1.6053-2.3188 0.59456-1.2486 1.5459-3.3296 1.0108-2.0215 1.7837-4.2809 2.081-5.3511 2.4377-8.6212-0.59457-0.23783-0.71348-0.89185t0.35674-0.9513q0.47565-0.35674 0.65402-0.4162 0.23783-0.11891 0.47565-0.23782 1.3675-0.53511 1.7837 0.89184v0.65402q1.2486-0.23782 2.4972-0.47565 1.308-0.29728 2.6161-0.41619 3.0323-0.35674 4.9349 0.47565 1.0108 0.71348 0.41619 1.6648-0.53511 0.89184-1.6053 0.47565-1.0702-0.47565-2.1999-0.47565-1.1297-0.0595-2.3188 0.17837-1.1297 0.17837-2.3188 0.47565t-2.3188 0.47565q-0.35674 1.9026-1.5459 5.4105 1.6053-0.17837 3.5079-0.29728 1.9621-0.17837 2.9134-0.65402 1.0108-0.53511 1.427-0.41619 0.29728 0.0594 0.53511 0.41619 0.47565 0.77293-0.11891 1.6648-1.9026 1.0108-4.2214 1.2486-2.3188 0.17837-4.3998 0.4162-0.17837 0-0.53511-0.11891-0.47565 1.1891-1.0108 2.3188-0.47565 1.1297-0.9513 2.3188-0.47565 1.1297-0.9513 2.3782-0.47566 1.2486-0.89185 1.7837-0.35674 0.53511-0.35674 0.59457 2.4972-1.6648 3.8052-2.0215 3.8647-1.0702 7.7293-1.0702 3.9241-0.0595 7.8482 0 1.0108 0.35673 1.0108 1.2486t-1.0702 1.1297z"/>
    <path d="m261.39 163.83q0.71348 0 1.9621 1.2486 0.77293-1.308 2.081-3.9241 1.308-2.6755 1.7837-3.9836t1.1297-2.4972q0.65402-0.47565 1.2486-0.35674 0.59456 0.11891 0.89184 0.9513 0 1.9621-0.71347 3.4485-0.71348 1.4864-1.1891 2.4377-0.47565 0.9513-0.89185 2.0215-0.77293 1.9026-1.308 4.7565-0.47565 2.7944-0.47565 3.9836 0 1.1297 0.4162 1.9621 0.41619 0.83239 1.308 0.77293 0.9513-0.11891 1.5459-0.29728 0.59457-0.17837 1.1891-0.23783 0.59456-0.11891 0.9513 0.17837 0.35674 0.23783 0.47565 0.59457 0.29729 0.89184-0.71347 1.427-0.77294 0.17837-1.5459 0.41619-0.71348 0.23783-1.6648 0.29729-0.89184 0.0594-1.7242-0.29729-0.83239-0.29728-1.427-1.0702-1.1891-1.427-1.1297-3.4485 0-1.4864 0.23783-3.1512-3.9241 6.6591-7.3726 8.6806-0.9513 0.53511-1.7242-0.23782-1.427-2.2594 0.41619-6.4213 1.1297-2.4972 3.7458-5.8862 0.35673-0.47565 0.89184-0.65402 0.53511-0.23782 0.9513-0.47565 0.4162-0.23783 0.65402-0.23783zm-0.35673 5.0538q0.71347-1.1891 0.83239-1.4864 0.17836-0.29728 0.29728-0.4162-0.11892-0.0594-0.17837-0.0594-0.0595 0-0.17837-0.0595-0.11891-0.17837-0.47565-0.41619-2.6161 1.6648-4.162 6.2429-0.4162 1.2486-0.59456 2.3188 1.427-0.9513 4.4592-6.124z"/>
    <path d="m276.08 163.83q0.53511-1.0108 1.427-0.71347 0.9513 0.29728 0.83239 1.3675-0.89184 3.2106-1.5459 6.4213-0.59457 3.1512-1.4864 6.3618-0.47566 1.1297-1.4864 0.83239-1.0108-0.29728-0.71348-1.5459 0.29728-1.1891 0.59456-2.3782 0.35674-1.2486 0.65402-2.4377v-0.0595q0.47565-1.9621 0.77294-3.9241 0.35673-2.0215 0.9513-3.9241zm3.0917-8.5023q1.0108 0.35674 1.0108 1.2486 0 0.89185-1.0702 1.1297h-0.23782q-0.65402-0.0595-0.9513-0.4162-0.23783-0.35674-0.23783-0.83239 0.0595-1.0108 1.2486-1.1297z"/>
   </g>
   <g fill="#59f">
    <path d="m285.11 165.67q-1.0702 0.29729-2.5566 0.71348-1.1891 0.23783-1.4864-0.77293-0.29729-1.0108 0.71347-1.427 1.1297-0.41619 3.8052-1.0702 0.29728-2.1404 1.0108-4.5187 0.77293-2.3782 1.1297-4.1025-0.11891-0.23783 0.0595-0.89185 0.17837-0.65402 0.29728-1.0108 0.17837-0.35673 0.53511-0.47565 0.35674-0.17837 0.77293-0.11891 0.89185 0.23783 0.89185 1.2486h0.0594l-0.11891 0.23782q-0.35674 2.1404-0.9513 4.2214-0.53511 2.081-1.0108 4.1619l-0.17837 0.71348 3.7458-0.71348q0.59457-0.0594 0.95131 0.23783 0.35673 0.29728 0.41619 0.71348 0.0595 0.41619-0.23782 0.83239-0.23783 0.41619-1.1891 0.59456-3.0917 0.59456-4.162 0.83239-0.65402 3.6268-1.4864 7.1348-0.77293 3.4485-2.3783 6.8375-0.71347 0.95131-1.5459 0.47565-0.83239-0.47565-0.59457-1.4864 1.427-3.0323 2.1404-6.0646 0.77294-3.0917 1.3675-6.3024z"/>
    <path d="m298.31 163.83q0.53511-1.0108 1.427-0.71347 0.95131 0.29728 0.83239 1.3675-0.89184 3.2106-1.5459 6.4213-0.59457 3.1512-1.4864 6.3618-0.47565 1.1297-1.4864 0.83239t-0.71348-1.5459q0.29728-1.1891 0.59457-2.3782 0.35673-1.2486 0.65402-2.4377v-0.0595q0.47565-1.9621 0.77293-3.9241 0.35674-2.0215 0.9513-3.9241zm3.0917-8.5023q1.0108 0.35674 1.0108 1.2486 0 0.89185-1.0702 1.1297h-0.23783q-0.65402-0.0595-0.9513-0.4162-0.23783-0.35674-0.23783-0.83239 0.0595-1.0108 1.2486-1.1297z"/>
    <path d="m303.72 171.02q0.35674-0.9513 0.83239-2.1404 0.35674-1.2486 0.9513-2.2593 1.3675-2.6755 2.8539-3.8052l0.17837-0.35674q3.1512-2.735 6.2429-2.0215 1.427 0.35674 2.4972 1.3675 1.0702 0.9513 1.5459 2.3188 1.1891 3.2106-0.83239 6.8375-1.308 2.4377-4.3998 3.9241-2.2594 1.1297-5.7673 1.5459-1.9621 0.29728-3.389-1.6053-1.427-1.9026-0.71348-3.8052zm9.9887 1.0108q1.3675-0.9513 2.2593-2.1999 0.89185-1.308 0.89185-3.3296 0-2.0215-1.0702-3.0323-1.0702-1.0108-2.6161-0.77294-0.23783 0.71348-1.0108 0.89185-2.2593 0.29728-4.1025 3.1512-1.6053 2.4972-2.0215 4.816-0.11891 0.47565 0.0595 0.9513 0.23782 0.41619 0.35674 0.89185 0.35674 0.11891 0.71347 0.35673 0.35674 0.17837 1.1891 0.23783 0.89185 0.0595 2.4377-0.47565 1.6053-0.53511 2.9134-1.4864z"/>
    <path d="m322.27 176.31q-0.77294-1.8432-0.65403-4.4592 0.17837-2.6755 0.29729-3.9836 0.11891-1.308-0.0595-2.1404-0.53511-0.29728-0.59456-0.9513-0.11892-0.65402 0.29728-0.95131 0.47565-0.29728 0.53511-0.29728 0.9513-0.47565 1.6648 0.47565 0.89184 1.9621 0.29728 6.778-0.11892 1.1891-0.11892 2.1404 2.6755-4.1025 5.5889-7.2537 2.081-2.1999 4.1025-2.3188 1.0108-0.0594 2.0215-0.23782 1.0702-0.23783 1.9026 0.23782 3.5674 2.1404 2.5566 7.0753-0.4162 2.1404-1.5459 4.043-1.9026 3.2701-3.389 3.5674-0.5351 0.11892-1.0702 0.23783-0.53511 0.17837-0.9513-0.0595-0.35674-0.23782-0.47565-0.65402-0.29729-1.0108 0.77293-1.427 1.0702-0.41619 1.9621-1.427 0.9513-1.0702 1.5459-2.3783 0.65402-1.3675 0.89184-2.735 0.23783-1.427-0.0595-2.4972-0.71348-2.3783-3.9241-1.3675-1.8431 0.53511-3.1512 1.8432-1.308 1.308-2.3782 2.9134-1.0702 1.5459-2.081 3.2106-1.0108 1.6053-2.2593 2.8539-0.9513 0.53511-1.7242-0.23782z"/>
   </g>
  </g>
 </g>
 <metadata>
  <rdf:RDF>
   <cc:Work rdf:about="">
    <dc:creator>
     <cc:Agent>
      <dc:title>Riceball LEE</dc:title>
     </cc:Agent>
    </dc:creator>
    <dc:publisher>
     <cc:Agent>
      <dc:title>Riceball LEE</dc:title>
     </cc:Agent>
    </dc:publisher>
   </cc:Work>
  </rdf:RDF>
 </metadata>
</svg>
