<svg xmlns="http://www.w3.org/2000/svg" width="256.214" height="250.479" xmlns:v="https://vecta.io/nano"><style><![CDATA[.B{stroke-width:5.342}.C{fill:#2e3436}.D{filter:url(#C)}.E{color-interpolation-filters:sRGB}.F{flood-opacity:.498}.G{stroke-width:5.345}.H{stroke-dashoffset:0.5}]]></style><defs><filter id="A" x="-.047" y="-.082" width="1.095" height="1.164"><feGaussianBlur stdDeviation=".205"/></filter><filter  x="-.188" y="-.206" width="1.453" height="1.499" class="E"><feFlood flood-color="#000" class="F"/><feComposite in2="SourceGraphic" operator="in"/><feGaussianBlur stdDeviation="1"/><feOffset dx="1" dy="1"/><feComposite in="SourceGraphic"/></filter><filter id="C" x="-.151" y="-.101" width="1.365" height="1.244" class="E"><feFlood flood-color="#000" class="F"/><feComposite in2="SourceGraphic" operator="in"/><feGaussianBlur stdDeviation="2"/><feOffset dx="2" dy="2"/><feComposite in="SourceGraphic"/></filter></defs><path d="M2.734 121.442v62.611l115.052 63.368 114.855-64.776v-59.799L116.414 58.831z" fill="#e9b96e" stroke="#573a0d" class="B"/><g stroke="#2e3436" class="G"><path d="M30.278 167.915l-10.939-6.026v31.306l59.183 32.6v-10.435l-9.473-5.218v-10.435l-11.425-6.292v-20.87L30.278 157.48z" class="C"/><path d="M21.68 194.488l18.946-10.435 18.946 10.435 8.992 4.951v10.435l10.939 6.026v10.435z" fill="#555753"/></g><g stroke-linejoin="round" class="G"><path d="M125.886 105.789l30.185 16.628v10.435l36.065 19.895 18.973-10.435 21.538-11.839v13.247-20.87l-68.869-37.932z" fill="#fce94f" stroke="#625802"/><path d="M119.646 102.351l47.364-26.088v10.435l-47.364 26.088z" fill="#e9b96e" stroke="#573a0d" class="H"/><path d="M125.886 53.613L2.734 121.442l76.767 42.283 76.57-41.308-36.425-20.062 47.364-26.088z" fill="#73d216" stroke="#325b09"/></g><path d="M79.501 174.161v10.435l8.494 4.675v10.435l29.791 16.409 65.632-36.899v-11.202l10.939-6.026v-8.056l-38.285-21.084z" fill="#729fcf" stroke="#19314b" class="B"/><path d="M13.856 20l6.928 4-6.928 4-6.928-4z" opacity=".25" filter="url(#A)" transform="matrix(5.469292 0 0 5.217592 -16.211254 6.655153)" class="C"/><g class="B"><path d="M50.098 126.66l9.473 5.218 9.473-5.218V95.354l-9.473-5.218-9.473 5.218z" fill="#c17d11" stroke="#8f5902"/><path d="M19.339 88.848l40.232 22.159 36.338-20.015V47.54L59.571 27.526 19.339 49.685z" fill="#4e9a06" stroke="#316004"/></g><path d="M13.856 20l5.196 3-5.196 3-5.196-3z" opacity=".25" filter="url(#A)" transform="matrix(5.469292 0 0 5.217592 116.4136 6.655153)" class="C"/><path d="M183.418 127.041l8.778 4.837 7.63-4.2v-43.77l-7.63-4.205-8.778 5.598z" fill="#4e9a06" stroke="#316004" class="B"/><path d="M50.098 178.836l-4.736-2.609" fill="none" stroke="#ef2929" stroke-width="2.671" stroke-dasharray="0.5, 0.5" stroke-dashoffset="0.25"/><path d="M232.642 146.127l-21.877 12.047v5.218l-10.939 6.026v10.435l-10.939 6.026v20.87l43.754-24.1z" fill="#888a85" stroke="#2e3436" class="B H"/><g fill="#fce94f" class="D"><path d="M172.647 72.821h-21.094q-4.541 0-8.203-2.881-3.711-2.881-3.711-7.324V20.575q0-4.443 3.711-7.373 3.711-2.93 8.203-2.93h21.094v7.715h-20.508q-1.904 0-2.783 1.221-.879 1.221-.879 2.979v15.088h22.168v7.52h-22.168v16.211q0 1.758.879 2.979.879 1.221 2.783 1.221h20.508z"/></g><g fill="#729fcf" class="D"><path d="M246.707 73.909h-7.422v-2.344q-1.953 1.953-2.881 2.148-.928.195-1.855.195h-9.766q-4.248 0-7.08-2.881-2.832-2.881-2.832-7.178v-37.5h8.35V62.24q0 1.855 1.025 3.174 1.074 1.27 3.076 1.27h7.129q1.953 0 2.93-2.051.977-2.051.977-4.346V26.351h8.35z"/></g><g fill="#73d216" class="D"><path d="M194.823 25.936q2.93 0 5.371 1.465V11.434h8.398v61.914h-7.666v-2.295q-3.174 2.295-7.08 2.295h-3.418q-6.25 0-9.912-4.053-3.711-4.053-3.711-10.352V40.389q0-10.254 6.885-13.379 2.393-1.074 5.762-1.074zm5.371 36.621V36.532q0-1.416-1.318-2.393-1.318-.977-2.686-.977h-5.176q-5.029 0-5.664 4.785-.195 1.465-.195 3.076v17.773q.049 3.809.83 5.029 1.514 2.344 5.029 2.344h4.199q2.686 0 4.443-2.148.537-.684.537-1.465z"/></g></svg>